<?xml version="1.0" standalone="no"?><!DOCTYPE svg PUBLIC "-//W3C//DTD SVG 1.1//EN" "http://www.w3.org/Graphics/SVG/1.1/DTD/svg11.dtd"><svg t="1725681840862" class="icon" viewBox="0 0 1024 1024" version="1.1" xmlns="http://www.w3.org/2000/svg" p-id="10145" xmlns:xlink="http://www.w3.org/1999/xlink" width="200" height="200"><path d="M142.506667 434.773333H80.512c5.397333 80.917333-14.4 142.293333-14.4 142.293334l33.258667 60.949333c44.096-18.901333 43.178667-203.242667 43.178666-203.242667z m201.472 0h-62.08s-0.917333 184.362667 43.178666 203.242667l33.28-60.949333s-19.776-61.376-14.378666-142.293334z m-162.304 185.386667H142.570667c0 45.717333 38.656 49.749333 38.656 49.749333h19.754666c39.744 0 41.365333-45.44 41.365334-45.44V353.877333H181.674667V620.16z m208.768-129.621333h40.426666l-30.848 62.933333s-17.962667 35.392 10.794667 36.586667h67.136l26.837333-48.704h-33.557333a5.738667 5.738667 0 0 1-5.12-8.32l50.176-98.218667h-58.176l-3.434667 7.061333h-3.861333a5.717333 5.717333 0 0 1-5.12-8.32l41.770667-79.658666h-58.176l-49.642667 100.053333s-17.984 35.392 10.794667 36.586667z m8.832 119.125333s-7.424 0.64-12.373334-4.266667l-30.08 57.984a19.2 19.2 0 0 0 15.061334 6.741334h74.666666l31.914667-60.458667h-79.189333z" fill="#8a8a8a" p-id="10146"></path><path d="M624.810667 434.773333h38.378666v-61.738666h-137.28v61.738666h38.954667v176.853334H507.306667l-28.885334 58.282666h204.565334v-58.304h-58.176V434.773333z m275.029333 45.546667h-7.04v-39.936a67.712 67.712 0 0 0-67.733333-67.712h-23.381334v-18.858667H742.4v18.858667h-37.269333v60.522667h37.248v47.146666h-59.370667v60.522667h59.328v129.045333h59.328v-129.002666h81.685333c8 0 14.506667 6.506667 14.506667 14.506666v63.573334h-56.618667a50.901333 50.901333 0 0 0 50.901334 50.922666h15.317333a50.901333 50.901333 0 0 0 50.901333-50.901333v-80.064a58.474667 58.474667 0 0 0-58.496-58.624z m-98.133333-47.082667h21.333333c5.098667 0 9.216 4.117333 9.216 9.216v37.866667h-30.570667v-47.082667z" fill="#8a8a8a" p-id="10147"></path><path d="M957.568 402.389333a29.397333 29.397333 0 1 0-58.752 0v29.397334h29.397333c16.192 0 29.354667-13.162667 29.354667-29.397334z" fill="#8a8a8a" p-id="10148"></path></svg>